<svg xmlns="http://www.w3.org/2000/svg" viewBox="0 0 1021 510.39"><defs><style>.cls-1{fill:#fff;}</style></defs><title>Asset 1</title><g id="Layer_2" data-name="Layer 2"><g id="Layer_2-2" data-name="Layer 2"><path class="cls-1" d="M679,122.8a29.74,29.74,0,0,1-.27-5.21c10.9-1,27.48-8.78,18.24-15-5-3.34-17.68.29-18.24,15l-.76,0Zm1,4.84c1,6,7,10,15,9,7.22-.9,16-7,16-7h6c0,5-8,14-22,15-9.53.68-20-7.91-25.37-16.93l-3.44-8.59a13,13,0,0,1-.19-3.48c.54-6,1.74-17.93,18-22,24-6,27,16,24,21s-14,12-28,13l-1-4.77A41.53,41.53,0,0,0,680,127.64Z"/><path class="cls-1" d="M679,122.87l1,4.77A41.53,41.53,0,0,1,679,122.87Z"/><path class="cls-1" d="M632.62,398.5C628,408,610.8,413.61,604,412.64c-7-1-17-14,1-43-4,2-10,4-16-3-16,31-20,41-38,42s-28-7-33-7c-3.51,0-15,27-42.65,8.59-10.28-6.84-34.58,25.38-50.35,22.41-11.87-2.24,11-48-3-50s-31,46-34,45-14-5-14-5a108.86,108.86,0,0,1,2-19c-27,28-70,23.64-98,5-23,9-48,12-55-13-2,4-18,21-46,24s-27-31-29-26c-6,34-127,26-148,23,20-17,80-59,182-147-21.21,18.3-118-3-144,4,0,0,2-9,9-35,26.64-6.66,190.25,12,201,0-34,38-160.89,146.28-176,152,64,0,101-52,123-54s29,10,29,12c2-7,2-16,2-16s22-1,25-2-11,57,18,58,38-64,87-53c-1,15,0,17,0,25-33,6-47,29-44,32s26,12,52-10,45-44,61-123c7-1,20-2,20-2s-21,74-25,100c3.74-24.31,26-23,33-19s11,15,6,26-19,26-1,31,17-61,63-28c0-5,5-15,5-15a110.56,110.56,0,0,1,13-4c-3,7-12,41,6,44s25-6,26-41c17,4,41-5,41-5a16,16,0,0,0,15,13c-25,30,10,35,19,6,6,3,8,1,12,0,1,3-10,42-17,52l-24,6A121.77,121.77,0,0,0,632.62,398.5Zm-128.91-6.15c6.45-6.45,9.12-14.24,6-17.39s-10.94-.48-17.39,6-9.12,14.24-6,17.39S497.26,398.8,503.71,392.35Zm-329-3.44c3.73,3.72,12.24,1.25,19-5.53s9.25-15.28,5.53-19-12.24-1.25-19,5.53S171,385.18,174.73,388.91Z"/><path class="cls-1" d="M883.3,339.49l20.7-9.85c-16,25-42,83-73,63-20.49-13.22-2.1-49.58,59.78-72.73l-.07.14,22.66-7.29.06-.13c28.71-7.88,64.47-13,107.57-13,0,0-66,4-117,30C895.84,333.26,885.22,338.53,883.3,339.49Zm-1.3.15c-11,4-30,19-34,23s-13.85,17.17-6,22C855,392.64,882,339.64,882,339.64Z"/><path class="cls-1" d="M912,268.64c5,6,14,6,15,5-2.83,12.75-10.49,31.79-13.57,39-8.11,2.22-15.66,4.67-22.65,7.28.7-1.4,6.28-12.89,7.22-22.27-3,4-9,12-26,11s-17-24-10-43c0,0,18,1,21-1C875,279.64,885,296.64,912,268.64Z"/><path class="cls-1" d="M845,402.63c45.44,2.81,89.4,10.12,127,23-175.9-25.95-290.48-2.53-340.73,12.57-43.07,69.37-90.61,83.5-104.27,64.43C485.2,444.28,675.4,392.14,845,402.63Zm-293,80c11,8,50-34,50-34C596,451.64,541,474.64,552,482.64Z"/><path class="cls-1" d="M913.43,312.63l-.06.13-22.66,7.29.07-.14C897.77,317.3,905.32,314.85,913.43,312.63Z"/><path class="cls-1" d="M904,329.64l-20.7,9.85C885.22,338.53,895.84,333.26,904,329.64Z"/><path class="cls-1" d="M823,266.64c22,10,26,32,17,48s-21,21-50,6a105.68,105.68,0,0,0,13.06-16.95c1.1.88,17.6,13.78,24.94.95,8-14-13-21-13-21l-3.51,5.85C818.29,277.18,823,266.64,823,266.64Z"/><path class="cls-1" d="M859,49.65c-1.34.9-78.1,51.88-92,40S857.45,50.05,859,49.65Z"/><path class="cls-1" d="M815,177.64c39,12,24,49,8,89l-33,54c-22,18-39,24-50,19s-10-17-7-30c-2,2-9-1-8-6-8,26.79-44,49-66,30.83-38,17.17-58-35.83-87.95-39.29-4.11,15.53-8.46,33.95-9.09,43.46-15,1-17,0-28,0,12-44,25-111,25-119-11,10-25,12-25,12v-30s18,3,36-21c9,10,13,7,19,3,2,20.92-1.62,44.87-6.81,67.92,3-1.28,39.3-17.76,50.81-60.92,10,4,19,2,24-1-9,43-26,64-80,82,17.49-5.83,44,46,64,47s22-17,28-45c10,4,18,2,21,0-14,29-19,51-9,53s39-28,41-49c8,18,19,9,35,0-14,27-15,49-4,50,8.72.36,22.57-15.23,35.45-35.81l3.55-5.19-.16-.39c21.06-35.61,37.88-82.35,22.16-89.61-25.94-12-45.91,31.8-22.16,89.61q-1.68,2.85-3.39,5.58L779,305.64C736,245.64,776,165.64,815,177.64Z"/><path class="cls-1" d="M790,320.64l33-54s-4.71,10.54-11.51,22.85L803,303.64l.06.05A105.68,105.68,0,0,1,790,320.64Z"/><path class="cls-1" d="M822.57,109.37s-1.57,5.27-3,9.37c-2.53-.1-10.34-.28-11.53,3.9-1.47,5.18,12.12,4,10.93,14.39-1.06,9.16-4.59,17.24-17.93,14.61s-12.76-12.2-11-16c3.24-.2,4,.31,7,0-2,10.26,8,6.58,8,0,0-7-9-4-10-13C793.45,108.73,815,107.64,822.57,109.37Z"/><path class="cls-1" d="M791.84,286.25l.16.39-3.55,5.19Q790.16,289.1,791.84,286.25Z"/><path class="cls-1" d="M782,132.64s-1,7,1,12c0,0-4,5-18,2s-10-25-2-44a47.86,47.86,0,0,0,14,4c-8,4-9,20-8,24S774,138.64,782,132.64Z"/><path class="cls-1" d="M673.82,260.93c-12-10.26,78.68-28.22,78.68-28.22S685.79,271.2,673.82,260.93Z"/><path class="cls-1" d="M394.37,229.06C341,256.49,316.29,283.8,330,291.64c7,4,31-11,47-53Zm.09-.05q5.42-2.79,11.22-5.56c-7.35,18.4-60.25,119.77-96.68,93.19-21.68-15.82,5.9-65.52,77.33-106.17L410,198.64c0-.16.07-.34.1-.53,82.8-39.38,211.39-64.44,379.9-28.47-165.6-21.43-303.1,15-384.32,53.81.12-.29.23-.56.32-.81Z"/><path class="cls-1" d="M679,122.8l-1-5.16.76,0A29.74,29.74,0,0,0,679,122.8Z"/><path class="cls-1" d="M609.46,118.24c-.18.48-.34,1-.46,1.4C609.11,119.31,609.27,118.83,609.46,118.24Zm0-.06c4.42-11.48,25.59-32.31,27.32-4.54,0,0,1-17,11-18s2.19,24,18.19,23l.19.48a26.06,26.06,0,0,0,3.44,8.59l.37.93c-14,1-17-10-23-10s-11,18-11,18c-3-7-7.11-17.25-14-16-6.19,1.12-8,28-21,10-13.39,7.65-15.68,17.24-32,5-33.7,24.31-40-39,12-38l7-8,9,2c-9,18-19,35-9,37,5,1,15-12,17-29a43.44,43.44,0,0,1,10,2Zm-33.76,1.42a8,8,0,1,0-8,8A8,8,0,0,0,575.73,119.6Z"/><path class="cls-1" d="M666.19,119.12l3.44,8.59A26.06,26.06,0,0,1,666.19,119.12Z"/><path class="cls-1" d="M752,19.64c-393-42-632.17,91.13-620,153,12,61,150-97,150-97-5,19-18,72-24,94,33-46,62-89,67-98-14,51-25,110-9,106s22-12,23-25c8,4,13,1,16,0,6,23,20,23,38-1,14,0,22,2,24,3-2.88,14.39-5.76,37.29-6.9,43.47q-12.6,6-23.77,12.36L384,211.64c2.2-6,4.75-20.12,6-25-12,14-29,19-42-2-1,9-18.78,29.82-45,32-12,1-27-12-17-40-8,16-32,34-48,51,0-2-10-47-7-69-51,54-110,78-138,59S106-74.36,752,19.64Z"/><path class="cls-1" d="M609,119.64c.12-.45.28-.92.46-1.4C609.27,118.83,609.11,119.31,609,119.64Z"/><path class="cls-1" d="M539,26.64s10,9,20,7c-9,48-25,114-47,122s-30-49-30-49c-1,43-19,55-29,56s-25-9-24-29l14-3s-2,13,4,12,39-93,41-111c-1,45,13,89,18,96C525,88.64,539,26.64,539,26.64Z"/><path class="cls-1" d="M410.1,198.11c0,.19-.07.37-.1.53l-23.67,11.83Q397.51,204.13,410.1,198.11Z"/><path class="cls-1" d="M394.46,229,406,222.64c-.09.25-.2.52-.32.81Q399.88,226.21,394.46,229Z"/></g></g></svg>